<?xml version="1.0" encoding="UTF-8" standalone="no"?>
<!DOCTYPE svg PUBLIC "-//W3C//DTD SVG 1.1//EN"
 "http://www.w3.org/Graphics/SVG/1.1/DTD/svg11.dtd">
<!-- Generated by graphviz version 2.40.1 (20161225.0304)
 -->
<!-- Title: controllers_diagram Pages: 1 -->
<svg width="471pt" height="449pt"
 viewBox="0.00 0.00 471.38 449.00" xmlns="http://www.w3.org/2000/svg" xmlns:xlink="http://www.w3.org/1999/xlink">
<g id="graph0" class="graph" transform="scale(1 1) rotate(0) translate(4 445)">
<title>controllers_diagram</title>
<polygon fill="transparent" stroke="transparent" points="-4,4 -4,-445 467.3755,-445 467.3755,4 -4,4"/>
<!-- _diagram_info -->
<g id="node1" class="node">
<title>_diagram_info</title>
<text text-anchor="start" x="264" y="-426.6" font-family="Times,serif" font-size="13.00" fill="#000000">Controllers diagram</text>
<text text-anchor="start" x="264" y="-413.6" font-family="Times,serif" font-size="13.00" fill="#000000">Date: Mar 13 2017 &#45; 21:15</text>
<text text-anchor="start" x="264" y="-400.6" font-family="Times,serif" font-size="13.00" fill="#000000">Migration version: 20170313173446</text>
<text text-anchor="start" x="264" y="-387.6" font-family="Times,serif" font-size="13.00" fill="#000000">Generated by RailRoady 1.5.2</text>
<text text-anchor="start" x="264" y="-374.6" font-family="Times,serif" font-size="13.00" fill="#000000">http://railroady.prestonlee.com</text>
</g>
<!-- ApplicationController -->
<g id="node2" class="node">
<title>ApplicationController</title>
<path fill="none" stroke="#000000" d="M12,-336.5C12,-336.5 127.6416,-336.5 127.6416,-336.5 133.6416,-336.5 139.6416,-342.5 139.6416,-348.5 139.6416,-348.5 139.6416,-416.5 139.6416,-416.5 139.6416,-422.5 133.6416,-428.5 127.6416,-428.5 127.6416,-428.5 12,-428.5 12,-428.5 6,-428.5 0,-422.5 0,-416.5 0,-416.5 0,-348.5 0,-348.5 0,-342.5 6,-336.5 12,-336.5"/>
<text text-anchor="middle" x="69.8208" y="-413.3" font-family="Times,serif" font-size="14.00" fill="#000000">ApplicationController</text>
<polyline fill="none" stroke="#000000" points="0,-406.5 139.6416,-406.5 "/>
<polyline fill="none" stroke="#000000" points="0,-382.5 139.6416,-382.5 "/>
<polyline fill="none" stroke="#000000" points="0,-358.5 139.6416,-358.5 "/>
<text text-anchor="start" x="8" y="-343.3" font-family="Times,serif" font-size="14.00" fill="#000000">_layout</text>
</g>
<!-- ArticlesController -->
<g id="node3" class="node">
<title>ArticlesController</title>
<path fill="none" stroke="#000000" d="M188,-128.5C188,-128.5 281.8623,-128.5 281.8623,-128.5 287.8623,-128.5 293.8623,-134.5 293.8623,-140.5 293.8623,-140.5 293.8623,-318.5 293.8623,-318.5 293.8623,-324.5 287.8623,-330.5 281.8623,-330.5 281.8623,-330.5 188,-330.5 188,-330.5 182,-330.5 176,-324.5 176,-318.5 176,-318.5 176,-140.5 176,-140.5 176,-134.5 182,-128.5 188,-128.5"/>
<text text-anchor="middle" x="234.9312" y="-315.3" font-family="Times,serif" font-size="14.00" fill="#000000">ArticlesController</text>
<polyline fill="none" stroke="#000000" points="176,-308.5 293.8623,-308.5 "/>
<text text-anchor="start" x="184" y="-293.3" font-family="Times,serif" font-size="14.00" fill="#000000">index</text>
<text text-anchor="start" x="184" y="-279.3" font-family="Times,serif" font-size="14.00" fill="#000000">destroy</text>
<text text-anchor="start" x="184" y="-265.3" font-family="Times,serif" font-size="14.00" fill="#000000">edit</text>
<text text-anchor="start" x="184" y="-251.3" font-family="Times,serif" font-size="14.00" fill="#000000">create</text>
<text text-anchor="start" x="184" y="-237.3" font-family="Times,serif" font-size="14.00" fill="#000000">new</text>
<text text-anchor="start" x="184" y="-223.3" font-family="Times,serif" font-size="14.00" fill="#000000">show</text>
<text text-anchor="start" x="184" y="-209.3" font-family="Times,serif" font-size="14.00" fill="#000000">update</text>
<polyline fill="none" stroke="#000000" points="176,-202.5 293.8623,-202.5 "/>
<polyline fill="none" stroke="#000000" points="176,-178.5 293.8623,-178.5 "/>
<text text-anchor="start" x="184" y="-163.3" font-family="Times,serif" font-size="14.00" fill="#000000">_layout</text>
<text text-anchor="start" x="184" y="-149.3" font-family="Times,serif" font-size="14.00" fill="#000000">article_params</text>
<text text-anchor="start" x="184" y="-135.3" font-family="Times,serif" font-size="14.00" fill="#000000">set_article</text>
</g>
<!-- CommentsController -->
<g id="node4" class="node">
<title>CommentsController</title>
<path fill="none" stroke="#000000" d="M28,-96.5C28,-96.5 138.2139,-96.5 138.2139,-96.5 144.2139,-96.5 150.2139,-102.5 150.2139,-108.5 150.2139,-108.5 150.2139,-286.5 150.2139,-286.5 150.2139,-292.5 144.2139,-298.5 138.2139,-298.5 138.2139,-298.5 28,-298.5 28,-298.5 22,-298.5 16,-292.5 16,-286.5 16,-286.5 16,-108.5 16,-108.5 16,-102.5 22,-96.5 28,-96.5"/>
<text text-anchor="middle" x="83.1069" y="-283.3" font-family="Times,serif" font-size="14.00" fill="#000000">CommentsController</text>
<polyline fill="none" stroke="#000000" points="16,-276.5 150.2139,-276.5 "/>
<text text-anchor="start" x="24" y="-261.3" font-family="Times,serif" font-size="14.00" fill="#000000">index</text>
<text text-anchor="start" x="24" y="-247.3" font-family="Times,serif" font-size="14.00" fill="#000000">destroy</text>
<text text-anchor="start" x="24" y="-233.3" font-family="Times,serif" font-size="14.00" fill="#000000">edit</text>
<text text-anchor="start" x="24" y="-219.3" font-family="Times,serif" font-size="14.00" fill="#000000">create</text>
<text text-anchor="start" x="24" y="-205.3" font-family="Times,serif" font-size="14.00" fill="#000000">new</text>
<text text-anchor="start" x="24" y="-191.3" font-family="Times,serif" font-size="14.00" fill="#000000">show</text>
<text text-anchor="start" x="24" y="-177.3" font-family="Times,serif" font-size="14.00" fill="#000000">update</text>
<polyline fill="none" stroke="#000000" points="16,-170.5 150.2139,-170.5 "/>
<polyline fill="none" stroke="#000000" points="16,-146.5 150.2139,-146.5 "/>
<text text-anchor="start" x="24" y="-131.3" font-family="Times,serif" font-size="14.00" fill="#000000">_layout</text>
<text text-anchor="start" x="24" y="-117.3" font-family="Times,serif" font-size="14.00" fill="#000000">comment_params</text>
<text text-anchor="start" x="24" y="-103.3" font-family="Times,serif" font-size="14.00" fill="#000000">set_comment</text>
</g>
<!-- WelcomeController -->
<g id="node5" class="node">
<title>WelcomeController</title>
<path fill="none" stroke="#000000" d="M188,-.5C188,-.5 290.0654,-.5 290.0654,-.5 296.0654,-.5 302.0654,-6.5 302.0654,-12.5 302.0654,-12.5 302.0654,-80.5 302.0654,-80.5 302.0654,-86.5 296.0654,-92.5 290.0654,-92.5 290.0654,-92.5 188,-92.5 188,-92.5 182,-92.5 176,-86.5 176,-80.5 176,-80.5 176,-12.5 176,-12.5 176,-6.5 182,-.5 188,-.5"/>
<text text-anchor="middle" x="239.0327" y="-77.3" font-family="Times,serif" font-size="14.00" fill="#000000">WelcomeController</text>
<polyline fill="none" stroke="#000000" points="176,-70.5 302.0654,-70.5 "/>
<polyline fill="none" stroke="#000000" points="176,-46.5 302.0654,-46.5 "/>
<polyline fill="none" stroke="#000000" points="176,-22.5 302.0654,-22.5 "/>
<text text-anchor="start" x="184" y="-7.3" font-family="Times,serif" font-size="14.00" fill="#000000">_layout</text>
</g>
</g>
</svg>
