<?xml version="1.0" encoding="UTF-8" standalone="no"?>
<!DOCTYPE svg PUBLIC "-//W3C//DTD SVG 1.1//EN"
 "http://www.w3.org/Graphics/SVG/1.1/DTD/svg11.dtd">
<!-- Generated by graphviz version 2.40.1 (20161225.0304)
 -->
<!-- Title: models_diagram Pages: 1 -->
<svg width="654pt" height="260pt"
 viewBox="0.00 0.00 653.55 260.00" xmlns="http://www.w3.org/2000/svg" xmlns:xlink="http://www.w3.org/1999/xlink">
<g id="graph0" class="graph" transform="scale(1 1) rotate(0) translate(4 256)">
<title>models_diagram</title>
<polygon fill="transparent" stroke="transparent" points="-4,4 -4,-256 649.55,-256 649.55,4 -4,4"/>
<!-- _diagram_info -->
<g id="node1" class="node">
<title>_diagram_info</title>
<text text-anchor="start" x="8" y="-216.6" font-family="Times,serif" font-size="13.00" fill="#000000">Models diagram</text>
<text text-anchor="start" x="8" y="-203.6" font-family="Times,serif" font-size="13.00" fill="#000000">Date: Mar 13 2017 &#45; 21:15</text>
<text text-anchor="start" x="8" y="-190.6" font-family="Times,serif" font-size="13.00" fill="#000000">Migration version: 20170313173446</text>
<text text-anchor="start" x="8" y="-177.6" font-family="Times,serif" font-size="13.00" fill="#000000">Generated by RailRoady 1.5.2</text>
<text text-anchor="start" x="8" y="-164.6" font-family="Times,serif" font-size="13.00" fill="#000000">http://railroady.prestonlee.com</text>
</g>
<!-- ApplicationRecord -->
<g id="node2" class="node">
<title>ApplicationRecord</title>
<ellipse fill="none" stroke="#000000" cx="302.6877" cy="-194.5" rx="77.2916" ry="18"/>
<text text-anchor="middle" x="302.6877" y="-190.3" font-family="Times,serif" font-size="14.00" fill="#000000">ApplicationRecord</text>
</g>
<!-- Article -->
<g id="node3" class="node">
<title>Article</title>
<path fill="none" stroke="#000000" d="M409.8254,-137.5C409.8254,-137.5 633.55,-137.5 633.55,-137.5 639.55,-137.5 645.55,-143.5 645.55,-149.5 645.55,-149.5 645.55,-239.5 645.55,-239.5 645.55,-245.5 639.55,-251.5 633.55,-251.5 633.55,-251.5 409.8254,-251.5 409.8254,-251.5 403.8254,-251.5 397.8254,-245.5 397.8254,-239.5 397.8254,-239.5 397.8254,-149.5 397.8254,-149.5 397.8254,-143.5 403.8254,-137.5 409.8254,-137.5"/>
<text text-anchor="middle" x="521.6877" y="-236.3" font-family="Times,serif" font-size="14.00" fill="#000000">Article</text>
<polyline fill="none" stroke="#000000" points="397.8254,-229.5 645.55,-229.5 "/>
<text text-anchor="start" x="405.8254" y="-214.3" font-family="Times,serif" font-size="14.00" fill="#000000">id :integer</text>
<text text-anchor="start" x="405.8254" y="-200.3" font-family="Times,serif" font-size="14.00" fill="#000000">title :character varying</text>
<text text-anchor="start" x="405.8254" y="-186.3" font-family="Times,serif" font-size="14.00" fill="#000000">headline :text</text>
<text text-anchor="start" x="405.8254" y="-172.3" font-family="Times,serif" font-size="14.00" fill="#000000">body :text</text>
<text text-anchor="start" x="405.8254" y="-158.3" font-family="Times,serif" font-size="14.00" fill="#000000">created_at :timestamp without time zone</text>
<text text-anchor="start" x="405.8254" y="-144.3" font-family="Times,serif" font-size="14.00" fill="#000000">updated_at :timestamp without time zone</text>
</g>
<!-- Comment -->
<g id="node4" class="node">
<title>Comment</title>
<path fill="none" stroke="#000000" d="M409.8254,-.5C409.8254,-.5 633.55,-.5 633.55,-.5 639.55,-.5 645.55,-6.5 645.55,-12.5 645.55,-12.5 645.55,-88.5 645.55,-88.5 645.55,-94.5 639.55,-100.5 633.55,-100.5 633.55,-100.5 409.8254,-100.5 409.8254,-100.5 403.8254,-100.5 397.8254,-94.5 397.8254,-88.5 397.8254,-88.5 397.8254,-12.5 397.8254,-12.5 397.8254,-6.5 403.8254,-.5 409.8254,-.5"/>
<text text-anchor="middle" x="521.6877" y="-85.3" font-family="Times,serif" font-size="14.00" fill="#000000">Comment</text>
<polyline fill="none" stroke="#000000" points="397.8254,-78.5 645.55,-78.5 "/>
<text text-anchor="start" x="405.8254" y="-63.3" font-family="Times,serif" font-size="14.00" fill="#000000">id :integer</text>
<text text-anchor="start" x="405.8254" y="-49.3" font-family="Times,serif" font-size="14.00" fill="#000000">author :character varying</text>
<text text-anchor="start" x="405.8254" y="-35.3" font-family="Times,serif" font-size="14.00" fill="#000000">content :text</text>
<text text-anchor="start" x="405.8254" y="-21.3" font-family="Times,serif" font-size="14.00" fill="#000000">created_at :timestamp without time zone</text>
<text text-anchor="start" x="405.8254" y="-7.3" font-family="Times,serif" font-size="14.00" fill="#000000">updated_at :timestamp without time zone</text>
</g>
<!-- Article&#45;&gt;Comment -->
<g id="edge1" class="edge">
<title>Article&#45;&gt;Comment</title>
<path fill="none" stroke="#c6e8d4" d="M521.6877,-128.8922C521.6877,-122.8149 521.6877,-116.6764 521.6877,-110.6518"/>
<ellipse fill="none" stroke="#c6e8d4" cx="521.6878" cy="-133.1736" rx="4" ry="4"/>
<polygon fill="#c6e8d4" stroke="#c6e8d4" points="521.6878,-110.651 526.1877,-100.651 521.6878,-105.651 521.6877,-100.651 521.6877,-100.651 521.6877,-100.651 521.6878,-105.651 517.1877,-100.6511 521.6878,-110.651 521.6878,-110.651"/>
</g>
</g>
</svg>
